<svg xmlns="http://www.w3.org/2000/svg" viewBox="0 0 64 64" role="img" aria-label="Samvak">
  <defs>
    <linearGradient id="samvakGradient" x1="10" x2="54" y1="8" y2="56" gradientUnits="userSpaceOnUse">
      <stop offset="0" stop-color="#4ade80"/>
      <stop offset="1" stop-color="#2563eb"/>
    </linearGradient>
  </defs>
  <rect width="64" height="64" rx="18" fill="#020617"/>
  <path d="M20 43c0-8 6-14 14-14h2c4.4 0 8-3.6 8-8V17c0-2.2-1.8-4-4-4s-4 1.8-4 4v4h-4v-6c0-4.4 3.6-8 8-8s8 3.6 8 8v6c0 6.6-5.4 12-12 12h-2c-5.8 0-10 4.2-10 10v4h-4z" fill="url(#samvakGradient)"/>
  <circle cx="44" cy="45" r="5" fill="#f8fafc"/>
</svg>
